Coordinates
version=1
nRows=17
nColumns=24
inDegrees=yes

Units are S.I. units (second, meters, Newtons, ...)
Angles are in degrees.

endheader
time	pelvis_tilt	pelvis_list	pelvis_rotation	pelvis_tx	pelvis_ty	pelvis_tz	hip_flexion_r	hip_adduction_r	hip_rotation_r	knee_angle_r	ankle_angle_r	subtalar_angle_r	mtp_angle_r	hip_flexion_l	hip_adduction_l	hip_rotation_l	knee_angle_l	ankle_angle_l	subtalar_angle_l	mtp_angle_l	lumbar_extension	lumbar_bending	lumbar_rotation
      1.06250000	     -1.46709836	      3.03940860	      1.14078044	      0.58031523	      1.01394575	      0.26483695	     11.47376357	      2.04086243	      6.35262137	    -18.37224040	      7.87520493	    -13.46036125	     -0.43586975	     14.56877004	      3.30996628	     -3.26810428	    -66.90843407	      3.20649919	     -9.74476447	      7.34943220	      0.02458406	     -1.65309990	      2.50476591
      1.06666667	     -1.46157334	      3.11048221	      0.83079788	      0.58511571	      1.01454554	      0.26523657	     11.04088072	      1.97820166	      6.48126026	    -18.05455989	      7.96248957	    -13.23524010	     -0.35427937	     15.12939623	      3.32485186	     -3.56746502	    -66.69659745	      3.41032166	     -9.67482519	      7.24961841	      0.00516873	     -1.71865762	      2.78087817
      1.07083333	     -1.45656343	      3.18557150	      0.52460061	      0.58989098	      1.01511771	      0.26564414	     10.61255681	      1.90984483	      6.61640974	    -17.74270825	      8.04878430	    -13.02743094	     -0.27433017	     15.68567796	      3.33793415	     -3.86462335	    -66.45493536	      3.60010636	     -9.62213194	      7.15334614	     -0.01503493	     -1.79137810	      3.04391485
      1.07500000	     -1.44371683	      3.26175818	      0.21806883	      0.59465432	      1.01567586	      0.26604322	     10.17691584	      1.83574036	      6.74995039	    -17.42933332	      8.13367789	    -12.81385935	     -0.18990740	     16.22397793	      3.34666245	     -4.16382594	    -66.17887164	      3.78107980	     -9.59052025	      7.05245299	     -0.04622301	     -1.86793823	      3.30945702
      1.07916667	     -1.42647532	      3.33756789	     -0.08037045	      0.59939976	      1.01621351	      0.26643669	      9.74007143	      1.75846823	      6.88108631	    -17.12167595	      8.22303750	    -12.60827346	     -0.10910308	     16.75028136	      3.35101149	     -4.45565609	    -65.87127535	      3.96018424	     -9.56071611	      6.95567203	     -0.08228755	     -1.94402186	      3.55788502
      1.08333333	     -1.42820348	      3.40589438	     -0.37488562	      0.60413505	      1.01668492	      0.26683118	      9.32513921	      1.68812421	      7.02165509	    -16.81593255	      8.30647896	    -12.41630718	     -0.02984720	     17.29161519	      3.34007055	     -4.74750909	    -65.54089008	      4.13106707	     -9.54693284	      6.85876948	     -0.09697329	     -2.01614314	      3.80985479
      1.08750000	     -1.42761063	      3.47139467	     -0.66590660	      0.60884498	      1.01713648	      0.26720367	      8.91143279	      1.61577366	      7.16168845	    -16.51354178	      8.36004722	    -12.23290554	      0.00412528	     17.82296721	      3.32569284	     -5.03231446	    -65.17898681	      4.28993364	     -9.56189460	      6.81913075	     -0.11615704	     -2.07818815	      3.91924410
      1.09166667	     -1.42755238	      3.53648112	     -0.94982042	      0.61354997	      1.01754368	      0.26757334	      8.50110157	      1.54088395	      7.29441171	    -16.21866372	      8.48183721	    -12.04372484	      0.07835352	     18.34749866	      3.30745971	     -5.30555669	    -64.79404049	      4.45634317	     -9.53306857	      6.72462029	     -0.13264001	     -2.14877424	      4.28651126
      1.09583333	     -1.43692190	      3.59354313	     -1.22790407	      0.61823651	      1.01791504	      0.26793517	      8.10156468	      1.47248444	      7.43682208	    -15.92130779	      8.53472399	    -11.87165757	      0.10740698	     18.87473053	      3.27872923	     -5.56953171	    -64.37867159	      4.60141907	     -9.56043883	      6.68825695	     -0.14226176	     -2.20025083	      4.37931341
      1.10000000	     -1.42732229	      3.66543519	     -1.50815808	      0.62291746	      1.01827988	      0.26829690	      7.69134875	      1.38446147	      7.56897201	    -15.64603414	      8.66577828	    -11.68731077	      0.17570261	     19.36839330	      3.26225671	     -5.83760857	    -63.92710819	      4.73937910	     -9.55315075	      6.59238177	     -0.17020718	     -2.28543736	      4.74067723
      1.10416667	     -1.44066969	      3.70755042	     -1.74170105	      0.62760946	      1.01859326	      0.26859975	      7.28275827	      1.32167406	      7.68023469	    -15.32880031	      8.73373694	    -11.53511620	      0.18960800	     19.88425472	      3.22596613	     -6.04658237	    -63.46178841	      4.87483190	     -9.58489079	      6.57555556	     -0.15602267	     -2.33788144	      4.77696702
      1.10833333	     -1.43099976	      3.78023326	     -2.04868861	      0.63224526	      1.01890427	      0.26898520	      6.89273124	      1.23124187	      7.84937608	    -15.08353720	      8.84472984	    -11.35420152	      0.25009514	     20.35550184	      3.19218536	     -6.34108681	    -62.94752598	      4.99250471	     -9.57241607	      6.47710751	     -0.20462674	     -2.40919895	      5.17151997
      1.11250000	     -1.44632357	      3.81209391	     -2.27555917	      0.63690785	      1.01915075	      0.26925315	      6.49321103	      1.17281940	      7.95991862	    -14.77808944	      8.91362896	    -11.20551398	      0.26248749	     20.85688983	      3.14511555	     -6.53133333	    -62.43273745	      5.10951339	     -9.59508787	      6.45968253	     -0.19255574	     -2.44307257	      5.20618334
      1.11666667	     -1.41743374	      3.88266970	     -2.57482634	      0.64151238	      1.01942980	      0.26962479	      6.08702263	      1.07737240	      8.13206300	    -14.53802279	      9.02441749	    -11.02671758	      0.31351111	     21.28618377	      3.10860373	     -6.80644554	    -61.85779214	      5.20281162	     -9.57782597	      6.36070385	     -0.26940086	     -2.52183166	      5.57622483
      1.12083333	     -1.42852078	      3.92648909	     -2.82634761	      0.64612123	      1.01962289	      0.26992842	      5.70650338	      1.00557214	      8.27691354	    -14.26893395	      9.08404018	    -10.86350811	      0.33194373	     21.75945848	      3.05723828	     -7.02200453	    -61.27861255	      5.29008801	     -9.58000479	      6.32455242	     -0.28694950	     -2.57210780	      5.65596936
      1.12500000	     -1.44164374	      3.97430245	     -3.07927290	      0.65073644	      1.01977579	      0.27023151	      5.33297140	      0.92701434	      8.42411376	    -14.01160690	      9.17671403	    -10.70522307	      0.35027630	     22.22145103	      3.00750799	     -7.23493413	    -60.66878310	      5.36397622	     -9.56258461	      6.28496531	     -0.29766305	     -2.63060445	      5.80685517
      1.12916667	     -1.42898936	      4.03169329	     -3.34975571	      0.65534940	      1.01994320	      0.27052698	      4.95073632	      0.83225895	      8.55269422	    -13.78858316	      9.28823856	    -10.54444599	      0.37430951	     22.63446616	      2.96530616	     -7.46003323	    -60.01192307	      5.41726806	     -9.52903676	      6.22083162	     -0.31897503	     -2.67869987	      6.07311616
